# xmcd CD database file
#
# Track frame offsets:
#	150
#	47965
#	88200
#	111909
#	137878
#	155504
#	178574
#	198555
#	252575
#	267877
#	285542
#
# Disc length: 4205 seconds
#
# Revision: 1
# Processed by: cddbd v1.5.2PL0 Copyright (c) Steve Scherf et al.
# Submitted via: CDex 1.51
#
DISCID=a8106b0b
DTITLE=Mars Lasar - Nocturnal Diaries
DYEAR=2003
DGENRE=New Age
TTITLE0=Moonlight Canyon
TTITLE1=Deep Blue
TTITLE2=Pioneers Revisited
TTITLE3=Ancestors
TTITLE4=Mammoth Peaks
TTITLE5=Secret Lagoon
TTITLE6=Charlotte's Web
TTITLE7=Crystal Meadows
TTITLE8=Neptune's Ceremony
TTITLE9=Lands Of The Giants
TTITLE10=Enchanted Wilderness
EXTD=YEAR: 2003
EXTT0=
EXTT1=
EXTT2=
EXTT3=
EXTT4=
EXTT5=
EXTT6=
EXTT7=
EXTT8=
EXTT9=
EXTT10=
PLAYORDER=
